<?xml version="1.0" encoding="utf-8"?>
<!-- Generator: Adobe Illustrator 24.0.2, SVG Export Plug-In . SVG Version: 6.00 Build 0)  -->
<svg version="1.1" id="Layer_1" xmlns="http://www.w3.org/2000/svg" xmlns:xlink="http://www.w3.org/1999/xlink" x="0px" y="0px"
	 width="56px" height="56px" viewBox="0 0 56 56" style="enable-background:new 0 0 56 56;" xml:space="preserve">
<metadata><?xpacket begin="﻿" id="W5M0MpCehiHzreSzNTczkc9d"?>
<x:xmpmeta xmlns:x="adobe:ns:meta/" x:xmptk="Adobe XMP Core 5.6-c148 79.164036, 2019/08/13-01:06:57        ">
   <rdf:RDF xmlns:rdf="http://www.w3.org/1999/02/22-rdf-syntax-ns#">
      <rdf:Description rdf:about=""
            xmlns:photoshop="http://ns.adobe.com/photoshop/1.0/"
            xmlns:dc="http://purl.org/dc/elements/1.1/"
            xmlns:Iptc4xmpCore="http://iptc.org/std/Iptc4xmpCore/1.0/xmlns/"
            xmlns:xmp="http://ns.adobe.com/xap/1.0/"
            xmlns:xmpMM="http://ns.adobe.com/xap/1.0/mm/"
            xmlns:stEvt="http://ns.adobe.com/xap/1.0/sType/ResourceEvent#">
         <photoshop:AuthorsPosition>Senior UX-Designer</photoshop:AuthorsPosition>
         <dc:creator>
            <rdf:Seq>
               <rdf:li>DANA müller</rdf:li>
            </rdf:Seq>
         </dc:creator>
         <Iptc4xmpCore:CreatorContactInfo>
            <rdf:Description>
               <Iptc4xmpCore:CiAdrCity>Berlin</Iptc4xmpCore:CiAdrCity>
               <Iptc4xmpCore:CiAdrCtry>Germany</Iptc4xmpCore:CiAdrCtry>
            </rdf:Description>
         </Iptc4xmpCore:CreatorContactInfo>
         <xmp:MetadataDate>2020-01-10T09:27:13+01:00</xmp:MetadataDate>
         <xmpMM:InstanceID>xmp.iid:287babda-efa2-4afa-88e7-f1737340eb6e</xmpMM:InstanceID>
         <xmpMM:DocumentID>xmp.did:287babda-efa2-4afa-88e7-f1737340eb6e</xmpMM:DocumentID>
         <xmpMM:OriginalDocumentID>xmp.did:287babda-efa2-4afa-88e7-f1737340eb6e</xmpMM:OriginalDocumentID>
         <xmpMM:History>
            <rdf:Seq>
               <rdf:li>
                  <rdf:Description>
                     <stEvt:action>saved</stEvt:action>
                     <stEvt:instanceID>xmp.iid:287babda-efa2-4afa-88e7-f1737340eb6e</stEvt:instanceID>
                     <stEvt:when>2020-01-10T09:27:13+01:00</stEvt:when>
                     <stEvt:softwareAgent>Adobe Bridge 2020 (Macintosh)</stEvt:softwareAgent>
                     <stEvt:changed>/metadata</stEvt:changed>
                  </rdf:Description>
               </rdf:li>
            </rdf:Seq>
         </xmpMM:History>
      </rdf:Description>
   </rdf:RDF>
</x:xmpmeta>
                                                                                                    
                                                                                                    
                                                                                                    
                                                                                                    
                                                                                                    
                                                                                                    
                                                                                                    
                                                                                                    
                                                                                                    
                                                                                                    
                                                                                                    
                                                                                                    
                                                                                                    
                                                                                                    
                                                                                                    
                                                                                                    
                                                                                                    
                                                                                                    
                                                                                                    
                                                                                                    
                           
<?xpacket end="w"?></metadata>
<path d="M0.4,26.7c0.1-0.7,0.3-1.5,0.4-2.2c1.7-6.9,7.9-11.7,15-11.5c4.8,0.1,9.2,2.4,11.9,6.3c0,0.1,0.2,0.2,0.3,0.3
	c0.7-1,1.5-1.9,2.5-2.8c6.3-5.6,15.8-5,21.4,1.3c0.9,1,1.6,2.1,2.2,3.2c1,2.1,1.6,4.3,1.6,6.6c0,4.8,0,9.6,0,14.5
	c0,0.5-0.1,0.6-0.6,0.6c-1.3,0-2.7,0-4,0c-0.5,0-0.6-0.1-0.6-0.6c0-4.8,0-9.5,0-14.3c0.1-4.7-3.1-8.8-7.7-9.8
	c-5.3-1.3-10.7,2.1-11.9,7.4c-0.2,0.7-0.3,1.4-0.3,2.2v14.3c0,0.8,0.1,0.7-0.7,0.7c-1.3,0-2.6,0-3.8,0c-0.5,0-0.6-0.1-0.6-0.6
	c0-4.7,0-9.5,0-14.3c0.1-4.9-3.4-9.1-8.2-9.8c-5.3-1-10.4,2.6-11.4,7.9c-0.1,0.6-0.2,1.2-0.2,1.7c0,4.8,0,9.6,0,14.4
	C5.6,42.9,5.5,43,5,43c-1.6,0-3.1,0-4.6,0L0.4,26.7z"/>
</svg>
